<?xml version="1.0" standalone="no"?><!DOCTYPE svg PUBLIC "-//W3C//DTD SVG 1.1//EN" "http://www.w3.org/Graphics/SVG/1.1/DTD/svg11.dtd"><svg t="1747219302071" class="icon" viewBox="0 0 1024 1024" version="1.1" xmlns="http://www.w3.org/2000/svg" p-id="7813" width="40" height="40" xmlns:xlink="http://www.w3.org/1999/xlink"><path d="M0 0h1024v1024H0z" fill="#FFFFFF" p-id="7814"></path><path d="M705.024 658.901333L557.098667 738.133333A82.304 82.304 0 0 0 512 811.818667V934.4l353.578667-188.416a25.514667 25.514667 0 0 0 14.250666-22.826667V345.941333l-115.114666 60.16a82.304 82.304 0 0 0-45.056 73.685334v154.794666c-0.426667 11.221333-6.357333 18.688-14.634667 24.32" fill="#DA4725" p-id="7815"></path><path d="M304.768 637.397333v-155.306666c0-30.378667-16.64-58.496-45.098667-73.898667l-115.498666-62.293333v376.618666c0 9.386667 6.314667 18.773333 14.250666 22.869334L512 934.442667v-123.008c0-30.378667-16.64-58.538667-45.098667-73.898667l-147.925333-77.653333c-8.277333-5.632-14.208-13.141333-14.208-22.485334" fill="#028DCF" p-id="7816"></path><path d="M665.770667 181.333333l-140.458667-88.661333a31.530667 31.530667 0 0 0-27.392 0L162.56 303.914667l109.269333 67.328c27.434667 16.725333 60.458667 16.725333 86.016 0l140.458667-88.661334c1.877333-2.090667 3.754667-2.090667 5.973333-2.090666a25.856 25.856 0 0 1 21.418667 2.090666l140.458667 88.661334c27.434667 16.725333 60.458667 16.725333 86.016 0l109.226666-67.328-195.626666-122.538667z" fill="#72AE2C" p-id="7817"></path></svg>