<?xml version="1.0" standalone="no"?><!DOCTYPE svg PUBLIC "-//W3C//DTD SVG 1.1//EN" "http://www.w3.org/Graphics/SVG/1.1/DTD/svg11.dtd"><svg t="1747971094313" class="icon" viewBox="0 0 1024 1024" version="1.1" xmlns="http://www.w3.org/2000/svg" p-id="8988" width="40" height="40" xmlns:xlink="http://www.w3.org/1999/xlink"><path d="M683.52 924.16c69.427-32.922 165.786-91.546 245.76-194.56 20.275-26.112 37.171-52.02 51.2-76.8 12.698-31.488 27.802-76.851 35.84-133.12 18.278-127.54-12.39-222.31-20.48-245.76-12.902-37.376-29.85-80.896-71.68-122.88C858.726 85.3 778.906 72.55 755.2 69.12c-57.907-8.397-103.322 2.15-138.24 10.24-23.808 5.53-67.942 16.128-117.76 46.08-39.578 23.808-64.512 48.845-81.92 66.56-48.486 49.357-73.267 95.283-107.52 158.72-20.275 37.58-37.58 70.042-51.2 117.76-2.611 9.165-9.011 32.614-15.36 76.8-5.99 41.882-11.827 101.325-10.138 175.104-49.92-82.227-79.462-154.112-97.382-205.824-15.872-45.875-22.17-74.803-25.6-102.4-7.066-56.986-13.67-110.285 15.36-158.72 38.81-64.717 116.173-79.053 138.854-83.251 95.181-17.613 170.036 29.645 188.826 42.291 27.29-23.91 54.63-47.77 81.92-71.68-31.898-24.934-89.293-62.208-168.96-76.8-17.152-3.123-57.651-9.318-109.21-3.891-39.475 4.147-96.921 9.933-151.91 49.971-11.93 8.653-46.029 35.174-71.68 81.92C-5.837 263.27 0.256 334.95 7.68 422.4c3.738 44.186 10.445 79.82 15.36 102.4 34.714 125.645 86.374 210.637 122.88 261.12 29.03 40.09 51.251 62.157 58.01 68.762 27.699 26.982 95.027 90.982 203.11 115.558 31.795 7.22 98.406 21.555 179.251-1.434 27.085-7.68 99.687-29.388 155.853-96.46 76.493-91.392 68.915-202.855 64.256-270.695-4.864-71.475-24.525-115.046-30.72-128-20.787-43.571-47.616-73.881-66.56-92.16-80.23 32.41-160.41 64.87-240.64 97.28l34.56 86.477 165.12-71.117c13.875 24.013 34.202 67.123 35.84 122.88 2.662 92.211-46.387 203.264-143.36 240.64-50.842 19.61-131.584 25.344-179.2-20.48-28.416-27.34-33.178-61.696-40.96-117.76-3.891-28.211-12.954-111.104 15.36-215.04 10.291-37.734 35.02-113.305 92.16-189.44 33.229-44.288 63.078-69.632 71.68-76.8 27.546-22.886 57.344-47.616 101.018-61.184 16.998-5.273 99.276-28.518 178.534 18.023 67.38 39.526 90.368 104.704 99.328 130.201 13.67 38.81 14.592 70.861 15.36 97.28 0.768 26.573 1.946 85.043-25.6 153.6-23.86 59.392-58.573 99.84-81.92 122.88-40.96 75.06-81.92 150.119-122.88 225.229z" fill="#13EAE4" p-id="8989"></path></svg>